<?xml version="1.0" encoding="utf-8"?>
<!-- Generator: Adobe Illustrator 15.0.0, SVG Export Plug-In . SVG Version: 6.00 Build 0)  -->
<!DOCTYPE svg PUBLIC "-//W3C//DTD SVG 1.1//EN" "http://www.w3.org/Graphics/SVG/1.1/DTD/svg11.dtd">
<svg version="1.1" id="Layer_1" xmlns="http://www.w3.org/2000/svg" xmlns:xlink="http://www.w3.org/1999/xlink" x="0px" y="0px"
	 width="600px" height="800px" viewBox="0 0 600 800" enable-background="new 0 0 600 800" xml:space="preserve">
<g transform="translate(0.000000,117.000000) scale(0.100000,-0.100000)">
	<path d="M2745.493,597.222c-42.739-12.197-134.365-134.365-207.681-262.646c-73.281-134.399-152.71-226.025-177.139-213.799
		c-79.395,48.857-433.701-219.907-494.785-384.814c-36.655-91.626-146.597-629.184-244.336-1203.374
		c-97.744-568.066-207.681-1172.827-244.336-1331.621c-67.202-274.883-61.084-305.42,61.084-390.957
		c103.853-67.178,128.281-134.404,103.853-250.43c-18.345-91.621-48.882-329.873-73.311-531.436
		c-18.315-201.572-48.857-378.74-54.971-397.051c-12.231-18.311-36.655-158.799-61.084-305.42
		c-171.025-1117.832-171.025-1154.512-67.202-1197.227c140.513-55,415.391,24.395,366.509,109.941
		c-24.429,36.621-18.315,48.857,24.429,30.537c30.537-24.453,48.882-97.764,30.537-164.941
		c-36.621-140.479,189.37-219.873,439.819-158.789c140.483,36.621,152.71,67.168,152.71,415.361
		c0,207.646,18.315,354.277,42.773,335.957c18.311-24.453,30.542-232.1,24.429-464.268
		c-12.231-354.277,6.113-433.682,97.739-482.529c177.139-97.773,543.643-36.689,794.092,134.395
		c274.883,189.336,348.193,195.42,561.992,36.621c207.646-140.479,494.756-201.562,500.84-103.848
		c12.227,91.621,12.227,55-36.631,653.613c-24.453,287.1-30.537,506.982-12.227,488.672c18.311-18.32,48.857-219.883,73.311-458.135
		c24.463-232.109,55-439.814,67.168-452.041c12.236-18.32,103.857,0,195.488,30.537c183.252,67.227,195.479,146.621,122.168,696.387
		c-24.404,183.252-61.084,488.672-79.404,671.924c-24.453,183.252-48.848,403.135-67.168,488.672
		c-97.764,629.15-97.764,836.865,6.084,879.639c140.488,48.848,103.857,384.814-183.252,1808.066
		c-226.016,1117.827-287.109,1264.453-629.15,1478.247c-183.252,116.055-195.479,116.055-158.857,12.197
		c24.463-67.197-48.857,18.345-164.883,183.252c-116.074,171.055-250.479,317.651-299.336,335.962
		c-67.168,18.345-79.395,6.118-24.453-61.084c67.227-91.626,73.311-6621.513,6.143-6688.681
		c-48.857-48.916-213.794,329.814-287.104,678.008c-36.655,171.025-79.399,910.176-97.739,1649.277
		c-12.202,739.092-54.971,1429.36-91.631,1545.415c-61.084,177.168-48.853,219.907,61.084,342.075
		c140.513,146.597,140.513,6.113,42.773,1899.722c-12.227,201.567,0,427.593,30.542,506.987
		c30.542,73.315,42.739,134.399,36.655,128.281C2824.922,633.877,2782.148,615.566,2745.493,597.222z"/>
</g>
</svg>
